HIERARCHY
ROOT RootJoint
{
    OFFSET   0.000000   0.000000   0.000000
    CHANNELS 6 Xposition Yposition Zposition Xrotation Yrotation Zrotation
    JOINT pelvis_lowerback
    {
        OFFSET   0.000000   0.093605   0.000000
        CHANNELS 3 Xrotation Yrotation Zrotation
        JOINT lowerback_torso
        {
            OFFSET   0.000000   0.100000   0.000000
            CHANNELS 3 Xrotation Yrotation Zrotation
            JOINT torso_head
            {
                OFFSET   0.000000   0.282350   0.000000
                CHANNELS 3 Xrotation Yrotation Zrotation
                End Site
                {
                    OFFSET   0.000000   0.192650   0.000000
                }
            }
            JOINT rTorso_Clavicle
            {
                OFFSET  -0.001000   0.157500   0.000000
                CHANNELS 3 Xrotation Yrotation Zrotation
                JOINT rShoulder
                {
                    OFFSET  -0.117647   0.000000   0.000000
                    CHANNELS 3 Xrotation Yrotation Zrotation
                    JOINT rElbow
                    {
                        OFFSET  -0.245000   0.000000   0.000000
                        CHANNELS 3 Xrotation Yrotation Zrotation
                        JOINT rWrist
                        {
                            OFFSET  -0.240000   0.000000   0.000000
                            CHANNELS 3 Xrotation Yrotation Zrotation
                            End Site
                            {
                                OFFSET  -0.116353  -0.002500   0.000000
                            }
                        }
                    }
                }
            }
            JOINT lTorso_Clavicle
            {
                OFFSET   0.001000   0.157500   0.000000
                CHANNELS 3 Xrotation Yrotation Zrotation
                JOINT lShoulder
                {
                    OFFSET   0.117647   0.000000   0.000000
                    CHANNELS 3 Xrotation Yrotation Zrotation
                    JOINT lElbow
                    {
                        OFFSET   0.245000   0.000000   0.000000
                        CHANNELS 3 Xrotation Yrotation Zrotation
                        JOINT lWrist
                        {
                            OFFSET   0.240000   0.000000   0.000000
                            CHANNELS 3 Xrotation Yrotation Zrotation
                            End Site
                            {
                                OFFSET   0.116353  -0.002500   0.000000
                            }
                        }
                    }
                }
            }
        }
    }
    JOINT rHip
    {
        OFFSET  -0.100000  -0.051395   0.000000
        CHANNELS 3 Xrotation Yrotation Zrotation
        JOINT rKnee
        {
            OFFSET   0.000000  -0.410000   0.000000
            CHANNELS 3 Xrotation Yrotation Zrotation
            JOINT rAnkle
            {
                OFFSET   0.000000  -0.390000   0.000000
                CHANNELS 3 Xrotation Yrotation Zrotation
                JOINT rToeJoint
                {
                    OFFSET   0.000000  -0.050000   0.130000
                    CHANNELS 3 Xrotation Yrotation Zrotation
                    End Site
                    {
                        OFFSET  -0.010000   0.002000   0.060000
                    }
                }
            }
        }
    }
    JOINT lHip
    {
        OFFSET   0.100000  -0.051395   0.000000
        CHANNELS 3 Xrotation Yrotation Zrotation
        JOINT lKnee
        {
            OFFSET   0.000000  -0.410000   0.000000
            CHANNELS 3 Xrotation Yrotation Zrotation
            JOINT lAnkle
            {
                OFFSET   0.000000  -0.390000   0.000000
                CHANNELS 3 Xrotation Yrotation Zrotation
                JOINT lToeJoint
                {
                    OFFSET   0.000000  -0.050000   0.130000
                    CHANNELS 3 Xrotation Yrotation Zrotation
                    End Site
                    {
                        OFFSET   0.010000   0.002000   0.060000
                    }
                }
            }
        }
    }
}
MOTION
Frames: 15
Frame Time:   0.008333
 -2.376719   0.925631   3.975860   0.000000   0.000000   0.000000   0.000000   0.000000   0.000000   0.000000   0.000000   0.000000   0.000000   0.000000   0.000000   0.000000   0.000000   0.000000   0.000000   0.000000   0.000000   0.000000   0.000000   0.000000   0.000000   0.000000   0.000000   0.000000   0.000000   0.000000   0.000000   0.000000   0.000000   0.000000   0.000000   0.000000   0.000000   0.000000   0.000000   0.000000   0.000000   0.000000   0.000000   0.000000   0.000000   0.000000   0.000000   0.000000   0.000000   0.000000   0.000000   0.000000   0.000000   0.000000   0.000000   0.000000   0.000000   0.000000   0.000000   0.000000   0.000000   0.000000   0.000000
 -2.376735   0.925365   3.974712  -0.752116   0.364933  -0.254482   1.098820  -0.082648   0.206278   0.087013  -0.191556   0.230675   0.013961  -0.218492   0.048977  -0.406954  -0.433817  -0.434870  -1.841978  -0.361795   1.479995   0.036609   3.600615   0.056172   0.018425  -1.427482  -1.282596  -0.303002   0.407289   0.222468  -0.101024  -0.277194  -1.941318   0.047130  -3.495139   0.002260   0.089116   1.644530   1.389177   0.032192  -0.656904   0.019058   1.828233   0.003655  -0.004743  -1.297508  -0.122703   0.173357  -0.263012  -0.000148   0.000948  -0.132589   0.132117   0.579232   2.955407  -0.007962   0.013108  -2.337930   0.449182  -0.038997   0.158753  -0.000402   0.001306
 -2.376740   0.924915   3.973342  -1.663761   0.782918  -0.528428   2.220391  -0.199330   0.444625   0.345820  -0.445290   0.493769   0.105724  -0.425937   0.131470  -0.802322  -0.755012  -0.497329  -3.576538  -0.614545   3.142090   0.079536   7.332535   0.098706  -0.012478  -1.871172  -2.058687  -0.583828   0.613842  -0.006153  -0.222669  -0.736993  -4.118795   0.108442  -7.147504   0.006182   0.183221   2.212297   2.181645   0.042697  -1.302675  -0.173954   3.767747   0.010367  -0.008271  -2.501329  -0.249082   0.329402  -0.535947  -0.000851   0.001614  -0.061324   0.298864   1.438226   6.116670  -0.020165   0.028456  -4.506183   0.886531  -0.054608   0.278095  -0.000901   0.002119
 -2.376724   0.924041   3.971830  -2.579002   1.209509  -0.777325   3.288499  -0.351615   0.677132   0.633110  -0.733263   0.745762   0.201313  -0.618878   0.220617  -1.168185  -0.963909  -0.292155  -5.191306  -0.822893   4.886550   0.119888  11.101585   0.130657  -0.039881  -1.969224  -2.382090  -0.841066   0.661328  -0.517941  -0.363981  -1.279485  -6.376969   0.171136 -10.851181   0.009709   0.280238   2.337230   2.466995  -0.048641  -1.913174  -0.583797   5.587837   0.018008  -0.010950  -3.622420  -0.373626   0.470094  -0.781804  -0.001767   0.001991   0.133877   0.473097   2.484383   9.157509  -0.032964   0.042624  -6.523163   1.300778  -0.051252   0.406351  -0.001577   0.002868
 -2.376688   0.922572   3.970225  -3.462771   1.624213  -0.995176   4.300286  -0.531120   0.894187   0.916736  -1.042462   0.977105   0.285421  -0.798906   0.307857  -1.504625  -1.093828   0.085893  -6.689975  -1.017932   6.651928   0.153231  14.889249   0.154645  -0.067148  -1.928825  -2.381058  -1.076723   0.599917  -1.199918  -0.522393  -1.861613  -8.638770   0.228978 -14.584909   0.013204   0.374242   2.247873   2.398981  -0.250217  -2.484853  -1.177401   7.257240   0.025231  -0.013259  -4.669436  -0.495305   0.597070  -1.010776  -0.002734   0.002223   0.414160   0.649143   3.670587  12.033336  -0.044721   0.054901  -8.404415   1.690770  -0.032109   0.525160  -0.002227   0.003375
 -2.376625   0.920385   3.968570  -4.307023   2.015503  -1.183742   5.260069  -0.730152   1.093361   1.193156  -1.364497   1.186212   0.357610  -0.967070   0.390688  -1.812613  -1.170823   0.566988  -8.077449  -1.215688   8.393656   0.177528  18.686625   0.172589  -0.096344  -1.827924  -2.162407  -1.293253   0.464975  -1.977291  -0.694811  -2.457548 -10.856315   0.279082 -18.338207   0.017198   0.462400   2.039022   2.096427  -0.551946  -3.014684  -1.918560   8.780488   0.031321  -0.015355  -5.647776  -0.613301   0.711805  -1.224657  -0.003639   0.002367   0.758424   0.824412   4.961723  14.744030  -0.054672   0.065101 -10.160174   2.056537   0.000029   0.632537  -0.002776   0.003661
 -2.376497   0.917440   3.966851  -5.118109   2.350737  -1.352237   6.185090  -0.932255   1.282563   1.468259  -1.685387   1.374541   0.419391  -1.123889   0.468208  -2.094645  -1.207045   1.101418  -9.360430  -1.419227  10.080840   0.192514  22.489839   0.185790  -0.127743  -1.698582  -1.809593  -1.493091   0.281559  -2.804285  -0.878175  -3.050356 -13.002310   0.320763 -22.104511   0.022421   0.543052   1.762014   1.644044  -0.942557  -3.498939  -2.771915  10.170129   0.035978  -0.017550  -6.561584  -0.726687   0.815901  -1.421720  -0.004398   0.002489   1.127384   0.964794   6.269209  17.221345  -0.060945   0.071024 -11.862367   2.346837   0.012359  -0.069184   0.004306  -0.002462
 -2.376263   0.913565   3.964698  -5.472220   2.537213  -1.542178   6.891167  -1.071762   1.506629   1.384125  -1.921677   1.530870   0.357943  -1.404939   0.537158  -2.315124  -1.366173   1.478102 -10.737607  -1.589261  11.642731   0.187195  26.283142   0.205968  -0.174881  -1.618474  -1.072732  -1.425885   0.241961  -3.266940  -1.231513  -3.782446 -15.323510   0.349361 -25.899739   0.027528   0.639508   1.403254   0.827956  -2.054177  -4.267045  -3.642894  11.942034   0.041009  -0.028136  -6.935782  -1.019029   1.020766  -1.433038  -0.003593   0.002090   1.198283   1.170856   7.452755  18.494143  -0.056149   0.065692 -13.069680   2.702924  -0.202538  -1.127078   0.010011  -0.009775
 -2.376224   0.910344   3.962670  -5.824996   2.531826  -1.881614   7.604584  -1.141148   1.808557   1.298478  -2.093138   1.729777   0.278025  -1.669674   0.608688  -2.522029  -1.485991   1.862675 -12.018700  -1.768261  13.097168   0.174266  30.077569   0.222664  -0.225068  -1.537844  -0.402380  -1.350150   0.211959  -3.745806  -1.579064  -4.447461 -17.514217   0.370597 -29.692427   0.033895   0.728153   1.047454   0.002247  -3.132217  -5.319527  -3.723841  14.321377   0.032661  -0.048743  -6.884410  -1.454453   1.527688  -1.416948  -0.002910   0.001436   1.278892   1.378040   8.665012  19.495392  -0.050267   0.057682 -14.135637   3.046467  -0.378408  -1.312991   0.009073  -0.008824
 -2.375725   0.907393   3.960666  -6.156374   2.574226  -2.122270   8.295291  -1.258471   2.070278   1.228931  -2.290118   1.888992   0.199153  -1.919302   0.673737  -2.710078  -1.595199   2.194551 -13.205269  -1.962468  14.436348   0.154330  33.843528   0.235485  -0.273900  -1.455622   0.224206  -1.274462   0.154775  -4.198614  -1.922215  -5.073834 -19.574560   0.384719 -33.488474   0.041799   0.807555   0.694864  -0.829641  -4.048882  -6.170094  -3.806854  16.411267   0.023827  -0.056706  -6.978564  -1.757295   1.814734  -1.342695  -0.002425   0.000343   1.211079   1.571435   9.570016  20.338616  -0.043133   0.050365 -15.195362   3.370621  -0.569817  -0.768811   0.005309  -0.004031
 -2.374889   0.904495   3.958743  -6.481371   2.638167  -2.313673   8.965223  -1.386262   2.314065   1.179253  -2.495177   2.025680   0.127533  -2.153322   0.736203  -2.887559  -1.682957   2.461879 -14.311272  -2.151073  15.657975   0.128522  37.371782   0.242563  -0.319232  -1.285628   0.792904  -1.205904   0.069615  -4.606098  -2.263305  -5.668384 -21.497042   0.392511 -37.290559   0.050379   0.880179   0.331623  -1.637001  -4.847273  -6.897282  -3.952005  18.291862   0.017078  -0.058690  -7.119097  -2.007653   2.025291  -1.287007  -0.001979  -0.000232   1.043891   1.759066  10.297596  21.117157  -0.036308   0.044073 -16.191812   3.690994  -0.732659  -0.274524   0.003029  -0.000352
 -2.373996   0.902465   3.957367  -6.897853   2.714736  -2.195094   9.633284  -1.530846   2.287180   1.171280  -2.712383   2.054424   0.068805  -2.372806   0.791687  -3.042766  -1.772501   2.768683 -15.329088  -2.359605  16.819745   0.101750  40.667367   0.245902  -0.360783  -1.092904   1.320186  -1.144424  -0.028766  -4.991046  -2.598805  -6.219675 -23.281832   0.396615 -41.085964   0.056693   0.951918  -0.008754  -2.372922  -5.335786  -7.521320  -4.395383  19.800928   0.012266  -0.056262  -7.391688  -2.227063   2.165962  -1.225393  -0.001593  -0.000673   0.641139   2.164644  10.457534  22.472529  -0.027904   0.043760 -16.811156   4.140771  -1.042637   0.175333   0.002948   0.003953
 -2.373306   0.900635   3.956473  -7.280705   2.719983  -2.144051  10.209993  -1.638009   2.321523   1.151340  -2.897241   2.071858   0.015274  -2.576436   0.834396  -3.185028  -1.854220   3.005826 -16.273588  -2.568175  17.877160   0.072033  43.743921   0.248021  -0.401521  -0.907090   1.828775  -1.075013  -0.110444  -5.334985  -2.916331  -6.720421 -24.953847   0.395474 -44.883158   0.061395   1.015551  -0.335932  -3.105447  -5.753966  -8.087412  -4.752370  21.158013   0.008294  -0.053273  -7.663499  -2.427166   2.285724  -1.182185  -0.001283  -0.000873   0.304553   2.543684  10.566958  23.750318  -0.020382   0.041166 -17.419848   4.535954  -1.265112   0.587293   0.002983   0.006401
 -2.372989   0.898845   3.955484  -7.330369   2.883613  -2.187786  10.473619  -1.805786   2.313455   1.097003  -3.023094   2.210419   0.040109  -2.661071   0.912316  -3.258693  -2.119916   3.162053 -17.105140  -2.832928  18.787047   0.039457  46.897533   0.250188  -0.445538  -0.784431   2.368646  -0.879895  -0.192681  -5.457534  -3.271544  -7.415940 -26.472436   0.388644 -48.678446   0.071674   1.070197  -0.602180  -3.959786  -6.339315  -8.714024  -4.983361  22.258896   0.005314  -0.047939  -8.072506  -2.634933   2.433789  -1.157458  -0.001047  -0.000861  -0.466387   2.825021  10.791412  25.098474  -0.014017   0.040364 -17.998659   4.857116  -1.181357   0.839154   0.002090   0.007153
 -2.372819   0.897151   3.954547  -7.329821   3.043630  -2.256585  10.725523  -1.954091   2.289492   1.030060  -3.142867   2.358572   0.068001  -2.730658   0.986071  -3.330822  -2.392375   3.252988 -17.883923  -3.095562  19.590727   0.007369  49.852663   0.249366  -0.487561  -0.589288   2.826606  -0.721259  -0.276221  -5.464359  -3.635630  -8.067903 -27.824217   0.377454 -52.482536   0.081567   1.125457  -0.893461  -4.707413  -6.907562  -9.298655  -5.169430  23.237644   0.003072  -0.042594  -8.428125  -2.820707   2.569239  -1.150889  -0.000843  -0.000728  -1.228067   3.067365  11.040960  26.336444  -0.009246   0.038511 -18.544668   5.151362  -1.087433   1.070337   0.001389   0.007442
